inDegrees=yes
name=ik_S42_A12_T02
DataType=double
version=3
OpenSimVersion=4.3-2021-08-27-4bc7ad9
endheader
time	pelvis_tilt	pelvis_list	pelvis_rotation	pelvis_tx	pelvis_ty	pelvis_tz	hip_flexion_r	hip_adduction_r	hip_rotation_r	knee_angle_r	knee_angle_r_beta	ankle_angle_r	subtalar_angle_r	mtp_angle_r	hip_flexion_l	hip_adduction_l	hip_rotation_l	knee_angle_l	knee_angle_l_beta	ankle_angle_l	subtalar_angle_l	mtp_angle_l	lumbar_extension	lumbar_bending	lumbar_rotation	arm_flex_r	arm_add_r	arm_rot_r	elbow_flex_r	pro_sup_r	wrist_flex_r	wrist_dev_r	arm_flex_l	arm_add_l	arm_rot_l	elbow_flex_l	pro_sup_l	wrist_flex_l	wrist_dev_l
15.45999999999976	-1.406651463539006	1.672099377580786	22.832851884633	0	0.9399999999999999	0	39.43513880480451	-9.96025555348853	-9.796436821717638	45.33285076210926	0.7912075051140273	0	0	0	39.43513880480451	-9.96025555348853	-9.796436821717638	45.33285076210926	0.7912075051140273	0	0	0	-0.2490701983534459	1.733215996721797	-5.201910372091286	5.477172064100758	-3.529745177745431	-6.195728164403412	2.303426086465289	116.6614912072817	0	0	19.77415692888784	-23.40981372488943	-34.31356887488212	29.98642028744372	74.68801956492744	0	0
15.47999999999976	-1.405773750851533	1.627120556782174	22.83043240753522	0	0.9399999999999999	0	39.43887971255526	-9.960347512768282	-9.796739926560329	45.33731113100414	0.7912853532370964	0	0	0	39.43887971255526	-9.960347512768282	-9.796739926560329	45.33731113100414	0.7912853532370964	0	0	0	-0.2664584542416871	1.691166695487305	-5.175178707201156	5.405925140547937	-3.568123590222824	-6.282917125028611	2.359653667779849	116.7487629479578	0	0	19.86100575717072	-23.43924537023711	-34.47429255267926	27.84961292409956	76.51661430858773	0	0
15.49999999999976	-1.465585040731887	1.476951510724249	22.6889391497421	0	0.9399999999999999	0	39.46841179085399	-9.960859417974468	-9.798664977790832	45.38219535461617	0.7920687307213278	0	0	0	39.46841179085399	-9.960859417974468	-9.798664977790832	45.38219535461617	0.7920687307213278	0	0	0	-0.3825765947173494	1.574209123851935	-5.048292034123418	5.511635039756278	-3.408474862678608	-6.207906918340702	2.427543526445124	116.7520143457489	0	0	18.83165242306756	-22.17087465824509	-33.37665702966341	25.99053857401373	78.56190333214897	0	0
15.51999999999976	-1.475180594569006	1.440936874577066	22.56366996551615	0	0.9399999999999999	0	39.50052979399218	-9.961419187823155	-9.800768252887694	45.43044694584275	0.7929108798575579	0	0	0	39.50052979399218	-9.961419187823155	-9.800768252887694	45.43044694584275	0.7929108798575579	0	0	0	-0.4079463205916594	1.543359768701666	-4.941158629443497	5.377451983825295	-3.465877013647519	-5.752042407868161	2.584806826017374	116.4635233427412	0	0	17.93350762608479	-20.77714590206728	-32.24528894338869	24.00647325341801	80.1905038846742	0	0
15.53999999999976	-1.489722164074319	1.368967896018647	22.46418344209594	0	0.9399999999999999	0	39.52194380026815	-9.961791344898836	-9.802167492094812	45.46266931019772	0.7934732662083295	0	0	0	39.52194380026815	-9.961791344898836	-9.802167492094812	45.46266931019772	0.7934732662083295	0	0	0	-0.4497782914774629	1.480028255458578	-4.873512957621198	5.398009903778923	-3.383471544873903	-5.547523100129825	2.639357363249429	116.4275357286824	0	0	17.22039521735872	-19.47519222536893	-31.21593284958415	21.86235198879812	81.85072644689639	0	0
15.55999999999976	-1.519529008384981	1.309992981996271	22.0222848887718	0	0.9399999999999999	0	39.56175783835413	-9.962453475233914	-9.804701970601029	45.52405601358525	0.794544666299387	0	0	0	39.56175783835413	-9.962453475233914	-9.804701970601029	45.52405601358525	0.794544666299387	0	0	0	-0.5089584267935158	1.437060378284716	-4.449545710489352	5.493922378929315	-3.309970384557738	-5.534651028596609	2.618220673797906	116.5773560346035	0	0	15.37783372981278	-16.9144249168404	-28.11359025528363	22.05013317705317	81.21706562478346	0	0
15.57999999999976	-1.558422102423755	1.24942867961399	21.69538458551873	0	0.9399999999999999	0	39.61060896417764	-9.963249421047774	-9.807776206539595	45.59980603434295	0.7958667535700629	0	0	0	39.61060896417764	-9.963249421047774	-9.807776206539595	45.59980603434295	0.7958667535700629	0	0	0	-0.5754523405782419	1.394610933163544	-4.128850040898659	5.576385927418007	-3.2788757116356	-5.448195259868752	2.657152291623796	116.6131656456719	0	0	14.38510002124661	-15.8171033299561	-25.84824502713095	24.02332171464014	78.95324034459367	0	0
15.59999999999976	-1.601439581403379	1.180615805110922	21.45803860942078	0	0.9399999999999999	0	39.64327079312395	-9.963786798100147	-9.809843689536658	45.64997018460694	0.7967422831586347	0	0	0	39.64327079312395	-9.963786798100147	-9.809843689536658	45.64997018460694	0.7967422831586347	0	0	0	-0.6456872154175924	1.346556377389144	-3.928151692582267	5.698220768611592	-3.240279633600098	-5.393851337252386	2.650187134742208	116.7365704307577	0	0	13.55979130001217	-14.72384388436803	-23.7550570837582	24.22505060521902	78.10790598812154	0	0
15.61999999999976	-1.627068092135113	1.128296554827354	21.25865260098793	0	0.9399999999999999	0	39.66814269701111	-9.964191508418947	-9.811409063919491	45.68816177863119	0.7974088522209429	0	0	0	39.66814269701111	-9.964191508418947	-9.811409063919491	45.68816177863119	0.7974088522209429	0	0	0	-0.6852610489609193	1.281573575724472	-3.748155763320291	5.765371377376142	-3.141563335899834	-5.39194318788588	2.624541932199159	116.8711052085681	0	0	12.75030594165094	-13.23550508025632	-22.07376953096719	17.62164670126173	82.54787001957101	0	0
15.63999999999976	-1.604210500478826	1.088287691271865	21.06854563676038	0	0.9399999999999999	0	39.69533581297077	-9.964630190889562	-9.813111763561402	45.7300615651959	0.79814014145238	0	0	0	39.69533581297077	-9.964630190889562	-9.813111763561402	45.7300615651959	0.79814014145238	0	0	0	-0.6817735825609553	1.235247807009479	-3.58859972273442	5.750783545856918	-3.059097796167686	-5.357649615873218	2.622042390595847	116.9083782481743	0	0	11.57789852608121	-12.12105992287805	-20.22261360534467	17.19831803771589	82.43762453319641	0	0
15.65999999999976	-1.606533814354352	1.057266070321836	20.87994132941618	0	0.9399999999999999	0	39.72408546239767	-9.965092491053747	-9.814908939648454	45.77430056953332	0.798912257735872	0	0	0	39.72408546239767	-9.965092491053747	-9.814908939648454	45.77430056953332	0.798912257735872	0	0	0	-0.6991222350656988	1.206310382461357	-3.40063964352513	5.774868097617309	-3.012081123532148	-5.362914710832949	2.618673212338512	116.9515097687454	0	0	10.46499095269206	-10.98515845877827	-18.21821214609999	16.99962233695051	81.95420595260509	0	0
15.67999999999975	-1.627811775745795	1.014544663872769	20.68959473900449	0	0.9399999999999999	0	39.75520455993484	-9.965584069096453	-9.816835275693043	45.82238860554472	0.7997515522950884	0	0	0	39.75520455993484	-9.965584069096453	-9.816835275693043	45.82238860554472	0.7997515522950884	0	0	0	-0.7378560349684108	1.173103101624523	-3.2420043723359	5.774178030912507	-2.989331529545954	-5.100260017332084	2.709007162808307	116.7372818234381	0	0	9.491230898324504	-9.742171736294656	-16.39672736983136	16.80034993700621	81.314968341268	0	0
